<svg xmlns="http://www.w3.org/2000/svg" width="240" height="100" viewBox="0 0 240 100">
  <rect width="240" height="100" fill="#2a2a2a" rx="8"/>
  <g fill="#404040">
    <rect x="10" y="10" width="18" height="18" rx="2"/>
    <rect x="32" y="10" width="18" height="18" rx="2"/>
    <rect x="54" y="10" width="18" height="18" rx="2"/>
    <rect x="76" y="10" width="18" height="18" rx="2"/>
    <rect x="98" y="10" width="18" height="18" rx="2"/>
    <rect x="120" y="10" width="18" height="18" rx="2"/>
    <rect x="142" y="10" width="18" height="18" rx="2"/>
    <rect x="164" y="10" width="18" height="18" rx="2"/>
    <rect x="186" y="10" width="18" height="18" rx="2"/>
    <rect x="208" y="10" width="22" height="18" rx="2"/>
    <rect x="10" y="32" width="26" height="18" rx="2"/>
    <rect x="40" y="32" width="18" height="18" rx="2"/>
    <rect x="62" y="32" width="18" height="18" rx="2"/>
    <rect x="84" y="32" width="18" height="18" rx="2"/>
    <rect x="106" y="32" width="18" height="18" rx="2"/>
    <rect x="128" y="32" width="18" height="18" rx="2"/>
    <rect x="150" y="32" width="18" height="18" rx="2"/>
    <rect x="172" y="32" width="18" height="18" rx="2"/>
    <rect x="194" y="32" width="36" height="18" rx="2"/>
    <rect x="10" y="54" width="32" height="18" rx="2"/>
    <rect x="46" y="54" width="18" height="18" rx="2"/>
    <rect x="68" y="54" width="18" height="18" rx="2"/>
    <rect x="90" y="54" width="18" height="18" rx="2"/>
    <rect x="112" y="54" width="18" height="18" rx="2"/>
    <rect x="134" y="54" width="18" height="18" rx="2"/>
    <rect x="156" y="54" width="18" height="18" rx="2"/>
    <rect x="178" y="54" width="18" height="18" rx="2"/>
    <rect x="200" y="54" width="30" height="18" rx="2"/>
    <rect x="10" y="76" width="40" height="18" rx="2"/>
    <rect x="54" y="76" width="130" height="18" rx="2"/>
    <rect x="188" y="76" width="42" height="18" rx="2"/>
  </g>
</svg>
